<mxfile host="app.diagrams.net" modified="2023-06-11T06:50:14.318Z" agent="Mozilla/5.0 (Windows NT 10.0; Win64; x64) AppleWebKit/537.36 (KHTML, like Gecko) Chrome/114.0.0.0 Safari/537.36" version="21.2.9" etag="pwiuqghgp6ST629c8ACT" type="github">
  <diagram name="Page-1" id="lxY1oFJe2iWB6BVF2cHx">
    <mxGraphModel>
      <root>
        <mxCell id="0" />
        <mxCell id="1" parent="0" />
      </root>
    </mxGraphModel>
  </diagram>
</mxfile>
